<?xml version="1.0" encoding="utf-8"?>
<svg viewBox="0 0 110 31" width="110px" height="31px" fill="none" xmlns="http://www.w3.org/2000/svg">
  <path d="M 6.803999946594238 24.275999267578126 Q 6.099999946594238 24.275999267578126 5.362999946594238 23.857999267578126 Q 4.625999946594238 23.439999267578123 3.921999946594238 22.515999267578124 Q 3.3719999465942383 21.767999267578126 3.107999946594238 20.788999267578124 Q 2.8439999465942383 19.809999267578124 2.8439999465942383 18.863999267578127 Q 2.8439999465942383 18.379999267578125 2.909999946594238 17.917999267578125 Q 2.9759999465942384 17.411999267578125 3.184999946594238 16.773999267578127 Q 3.393999946594238 16.135999267578125 3.6139999465942383 15.717999267578126 Q 3.679999946594238 15.585999267578124 3.8119999465942382 15.431999267578124 Q 3.943999946594238 15.277999267578124 4.009999946594238 15.277999267578124 Q 4.009999946594238 15.277999267578124 4.020999946594238 15.277999267578124 Q 4.031999946594238 15.277999267578124 4.031999946594238 15.299999267578126 Q 4.031999946594238 15.321999267578125 3.833999946594238 15.761999267578126 Q 3.283999946594238 16.861999267578124 3.283999946594238 18.203999267578126 Q 3.283999946594238 19.413999267578124 3.668999946594238 20.568999267578125 Q 4.053999946594239 21.723999267578126 4.669999946594238 22.559999267578124 Q 5.263999946594238 23.351999267578126 5.835999946594238 23.703999267578126 Q 6.407999946594238 24.055999267578123 6.957999946594238 24.055999267578123 Q 7.7499999465942375 24.055999267578123 8.431999946594239 23.406999267578126 Q 9.113999946594237 22.757999267578125 9.575999946594237 21.745999267578124 Q 9.905999946594237 21.063999267578126 10.125999946594238 19.952999267578125 Q 10.345999946594238 18.841999267578124 10.477999946594238 17.455999267578125 Q 10.609999946594238 16.069999267578126 10.587999946594238 14.617999267578124 L 10.587999946594238 14.419999267578126 Q 9.817999946594238 14.749999267578126 9.102999946594238 15.200999267578126 Q 8.387999946594238 15.651999267578125 7.727999946594238 16.201999267578124 Q 7.661999946594238 16.267999267578126 7.595999946594238 16.267999267578126 Q 7.463999946594238 16.267999267578126 7.375999946594238 16.102999267578127 Q 7.287999946594238 15.937999267578125 7.287999946594238 15.783999267578125 Q 7.287999946594238 15.519999267578125 7.441999946594238 15.431999267578124 Q 8.189999946594238 14.859999267578125 8.970999946594237 14.485999267578126 Q 9.751999946594237 14.111999267578124 10.587999946594238 13.891999267578125 Q 10.565999946594237 12.461999267578125 10.334999946594237 11.097999267578125 Q 10.103999946594238 9.733999267578126 9.740999946594238 8.567999267578125 Q 9.377999946594239 7.401999267578125 8.937999946594239 6.587999267578127 L 8.915999946594237 6.5659992675781265 Q 7.441999946594238 6.587999267578127 6.066999946594238 6.862999267578125 Q 4.691999946594239 7.137999267578126 3.6139999465942383 7.676999267578125 Q 2.535999946594238 8.215999267578125 1.9089999465942382 9.040999267578126 Q 1.2819999465942382 9.865999267578125 1.2819999465942382 11.009999267578126 Q 1.2819999465942382 11.493999267578126 1.3809999465942382 11.900999267578126 Q 1.4799999465942384 12.307999267578126 1.7219999465942384 12.593999267578125 Q 1.8539999465942383 12.725999267578125 1.8539999465942383 12.835999267578124 Q 1.8539999465942383 12.967999267578126 1.7219999465942384 12.967999267578126 Q 1.5899999465942383 12.967999267578126 1.4579999465942381 12.813999267578126 Q 1.0839999465942383 12.373999267578126 0.9629999465942383 11.845999267578126 Q 0.8419999465942383 11.317999267578125 0.8419999465942383 10.789999267578125 Q 0.8419999465942383 9.711999267578125 1.3369999465942382 8.897999267578125 Q 1.8319999465942383 8.083999267578125 2.6569999465942384 7.500999267578125 Q 3.481999946594238 6.917999267578125 4.471999946594238 6.5549992675781255 Q 5.461999946594238 6.191999267578126 6.484999946594238 5.9939992675781255 Q 7.5079999465942375 5.795999267578125 8.365999946594238 5.773999267578127 Q 8.057999946594238 5.421999267578126 7.804999946594238 5.344999267578126 Q 7.551999946594238 5.267999267578126 7.364999946594238 5.278999267578126 Q 7.177999946594238 5.289999267578127 7.045999946594238 5.201999267578126 Q 6.957999946594238 5.135999267578127 6.957999946594238 5.047999267578126 Q 6.957999946594238 4.827999267578125 7.529999946594238 4.827999267578125 Q 7.947999946594238 4.827999267578125 8.486999946594239 5.0369992675781265 Q 9.025999946594238 5.245999267578126 9.465999946594238 5.773999267578127 Q 10.477999946594238 5.795999267578125 11.731999946594238 5.971999267578125 Q 12.985999946594237 6.147999267578125 14.195999946594238 6.543999267578126 Q 15.405999946594237 6.939999267578125 16.307999946594236 7.610999267578126 Q 17.209999946594237 8.281999267578126 17.49599994659424 9.315999267578126 Q 17.517999946594237 9.381999267578125 17.517999946594237 9.513999267578125 Q 17.517999946594237 9.711999267578125 17.407999946594238 9.711999267578125 Q 17.29799994659424 9.711999267578125 17.18799994659424 9.447999267578126 Q 16.945999946594238 8.567999267578125 15.889999946594237 7.951999267578126 Q 14.833999946594238 7.335999267578126 13.282999946594238 6.9729992675781265 Q 11.731999946594238 6.609999267578125 9.993999946594238 6.5659992675781265 Q 10.455999946594238 7.4459992675781255 10.730999946594238 8.633999267578126 Q 11.005999946594237 9.821999267578125 11.148999946594238 11.130999267578126 Q 11.291999946594238 12.439999267578125 11.335999946594237 13.715999267578125 Q 11.973999946594237 13.583999267578125 12.633999946594237 13.528999267578126 Q 13.293999946594237 13.473999267578126 13.975999946594237 13.473999267578126 Q 14.151999946594238 13.473999267578126 14.283999946594237 13.528999267578126 Q 14.415999946594237 13.583999267578125 14.415999946594237 13.627999267578126 Q 14.415999946594237 13.759999267578126 13.865999946594238 13.759999267578126 Q 12.567999946594238 13.759999267578126 11.335999946594237 14.133999267578126 Q 11.335999946594237 14.353999267578125 11.346999946594238 14.595999267578126 Q 11.357999946594237 14.837999267578125 11.357999946594237 15.057999267578126 Q 11.357999946594237 16.069999267578126 11.302999946594237 16.894999267578125 Q 11.247999946594238 17.719999267578125 11.203999946594237 18.225999267578125 Q 11.027999946594237 19.853999267578125 10.389999946594237 21.239999267578124 Q 9.751999946594237 22.625999267578123 8.816999946594237 23.450999267578126 Q 7.881999946594238 24.275999267578126 6.803999946594238 24.275999267578126 Z M 15.17968653869629 20.491999267578127 Q 14.783686538696289 20.491999267578127 14.607686538696289 20.150999267578126 Q 14.431686538696288 19.809999267578124 14.431686538696288 19.347999267578125 Q 14.431686538696288 18.753999267578124 14.64068653869629 17.961999267578125 Q 14.84968653869629 17.169999267578124 15.20168653869629 16.322999267578126 Q 15.553686538696288 15.475999267578125 16.00468653869629 14.760999267578125 Q 16.455686538696288 14.045999267578125 16.961686538696288 13.594999267578125 Q 17.467686538696288 13.143999267578126 17.95168653869629 13.143999267578126 Q 18.391686538696288 13.143999267578126 18.710686538696287 13.528999267578126 Q 19.02968653869629 13.913999267578125 19.02968653869629 14.397999267578125 Q 19.02968653869629 14.683999267578125 18.94168653869629 14.870999267578124 Q 18.853686538696287 15.057999267578126 18.743686538696288 15.057999267578126 Q 18.655686538696287 15.057999267578126 18.589686538696288 14.925999267578124 Q 18.36968653869629 14.419999267578126 18.11668653869629 14.199999267578125 Q 17.86368653869629 13.979999267578126 17.59968653869629 13.979999267578126 Q 17.15968653869629 13.979999267578126 16.73068653869629 14.474999267578125 Q 16.301686538696288 14.969999267578125 16.03768653869629 15.607999267578126 Q 15.81768653869629 16.091999267578124 15.630686538696288 16.762999267578124 Q 15.443686538696289 17.433999267578123 15.322686538696288 18.082999267578124 Q 15.20168653869629 18.731999267578125 15.20168653869629 19.149999267578124 Q 15.20168653869629 19.897999267578125 15.553686538696288 19.897999267578125 Q 15.993686538696288 19.897999267578125 16.67568653869629 18.929999267578125 Q 17.18168653869629 18.225999267578125 17.58868653869629 17.301999267578125 Q 17.99568653869629 16.377999267578126 18.281686538696288 15.695999267578125 Q 18.391686538696288 15.475999267578125 18.52368653869629 15.409999267578126 Q 18.655686538696287 15.343999267578125 18.76568653869629 15.343999267578125 Q 19.02968653869629 15.343999267578125 19.106686538696287 15.563999267578126 Q 19.18368653869629 15.783999267578125 19.18368653869629 15.937999267578125 Q 19.18368653869629 16.509999267578124 19.07368653869629 16.960999267578124 Q 18.963686538696287 17.411999267578125 18.963686538696287 18.049999267578126 Q 18.963686538696287 18.511999267578126 19.04068653869629 18.896999267578124 Q 19.11768653869629 19.281999267578126 19.31568653869629 19.281999267578126 Q 19.557686538696288 19.281999267578126 19.93168653869629 18.665999267578126 Q 20.019686538696288 18.489999267578124 20.19568653869629 18.489999267578124 Q 20.39368653869629 18.489999267578124 20.39368653869629 18.687999267578125 Q 20.39368653869629 18.973999267578126 19.99768653869629 19.292999267578125 Q 19.60168653869629 19.611999267578124 19.205686538696288 19.611999267578124 Q 18.67768653869629 19.611999267578124 18.45768653869629 19.171999267578126 Q 18.083686538696288 18.445999267578124 18.083686538696288 17.862999267578125 Q 18.083686538696288 17.279999267578127 18.06168653869629 17.059999267578124 Q 17.95168653869629 17.323999267578124 17.64368653869629 17.884999267578124 Q 17.33568653869629 18.445999267578124 16.917686538696287 19.050999267578124 Q 16.499686538696288 19.655999267578125 16.03768653869629 20.073999267578124 Q 15.575686538696289 20.491999267578127 15.17968653869629 20.491999267578127 Z M 21.5337624206543 22.603999267578125 Q 21.401762420654297 22.603999267578125 21.313762420654296 22.383999267578126 Q 21.093762420654297 21.921999267578126 20.983762420654298 21.008999267578126 Q 20.873762420654298 20.095999267578126 20.873762420654298 18.951999267578124 Q 20.873762420654298 17.609999267578125 21.005762420654296 16.157999267578127 Q 20.7197624206543 16.509999267578124 20.466762420654298 16.850999267578125 Q 20.213762420654298 17.191999267578126 20.059762420654298 17.345999267578126 Q 19.971762420654297 17.433999267578123 19.883762420654296 17.433999267578123 Q 19.707762420654298 17.433999267578123 19.707762420654298 17.191999267578126 Q 19.707762420654298 16.971999267578127 19.960762420654298 16.663999267578127 Q 20.213762420654298 16.355999267578127 20.543762420654296 16.036999267578125 Q 20.873762420654298 15.717999267578126 21.071762420654295 15.541999267578126 Q 21.2257624206543 13.913999267578125 21.489762420654298 12.395999267578125 Q 21.753762420654297 10.877999267578126 22.0947624206543 9.744999267578125 Q 22.435762420654296 8.611999267578126 22.831762420654297 8.171999267578126 Q 23.029762420654297 7.973999267578126 23.293762420654296 7.973999267578126 Q 23.535762420654297 7.973999267578126 23.689762420654297 8.116999267578125 Q 23.843762420654297 8.259999267578126 23.843762420654297 8.501999267578126 Q 23.843762420654297 8.787999267578126 23.590762420654297 9.304999267578125 Q 23.337762420654297 9.821999267578125 23.007762420654295 10.481999267578125 Q 22.677762420654297 11.119999267578125 22.369762420654297 12.351999267578126 Q 22.061762420654297 13.583999267578125 21.819762420654296 15.013999267578125 Q 22.479762420654296 14.661999267578125 23.227762420654297 14.661999267578125 Q 24.107762420654296 14.661999267578125 24.514762420654296 15.200999267578126 Q 24.921762420654296 15.739999267578124 24.921762420654296 16.509999267578124 Q 24.921762420654296 17.213999267578124 24.646762420654298 17.983999267578124 Q 24.371762420654296 18.753999267578124 23.9757624206543 19.413999267578124 Q 23.579762420654298 20.073999267578124 23.205762420654295 20.469999267578125 Q 22.985762420654297 20.689999267578123 22.743762420654296 20.931999267578124 Q 22.501762420654295 21.173999267578125 22.127762420654296 21.173999267578125 Q 21.841762420654298 21.173999267578125 21.709762420654297 20.953999267578126 Q 21.577762420654295 20.733999267578124 21.577762420654295 20.469999267578125 Q 21.577762420654295 20.271999267578124 21.7317624206543 19.853999267578125 Q 21.885762420654295 19.435999267578126 22.116762420654297 18.951999267578124 Q 22.3477624206543 18.467999267578126 22.589762420654296 18.027999267578124 Q 22.831762420654297 17.587999267578127 23.007762420654295 17.323999267578124 Q 23.095762420654296 17.169999267578124 23.260762420654295 16.938999267578126 Q 23.425762420654298 16.707999267578124 23.513762420654295 16.707999267578124 Q 23.557762420654296 16.707999267578124 23.557762420654296 16.773999267578127 Q 23.557762420654296 16.861999267578124 23.447762420654296 17.070999267578124 Q 23.337762420654297 17.279999267578127 23.227762420654297 17.455999267578125 Q 23.007762420654295 17.873999267578125 22.721762420654297 18.467999267578126 Q 22.435762420654296 19.061999267578123 22.215762420654297 19.644999267578125 Q 21.995762420654298 20.227999267578124 21.995762420654298 20.601999267578126 Q 21.995762420654298 20.777999267578124 22.105762420654298 20.777999267578124 Q 22.215762420654297 20.777999267578124 22.380762420654296 20.612999267578125 Q 22.545762420654295 20.447999267578126 22.721762420654297 20.238999267578127 Q 22.897762420654296 20.029999267578123 22.963762420654298 19.941999267578126 Q 23.4697624206543 19.237999267578125 23.777762420654298 18.313999267578126 Q 24.085762420654298 17.389999267578126 24.085762420654298 16.597999267578125 Q 24.085762420654298 15.915999267578126 23.843762420654297 15.464999267578126 Q 23.601762420654296 15.013999267578125 23.029762420654297 15.013999267578125 Q 22.501762420654295 15.013999267578125 21.7317624206543 15.497999267578125 Q 21.555762420654297 16.663999267578127 21.445762420654297 17.818999267578125 Q 21.335762420654298 18.973999267578126 21.335762420654298 19.941999267578126 Q 21.335762420654298 20.557999267578126 21.390762420654298 21.041999267578124 Q 21.445762420654297 21.525999267578126 21.555762420654297 21.833999267578125 Q 21.621762420654296 21.987999267578125 21.643762420654298 22.108999267578124 Q 21.665762420654296 22.229999267578126 21.665762420654296 22.339999267578126 Q 21.665762420654296 22.603999267578125 21.5337624206543 22.603999267578125 Z M 27.811264068603514 13.319999267578126 Q 27.613264068603517 13.319999267578126 27.536264068603515 13.110999267578126 Q 27.459264068603517 12.901999267578127 27.459264068603517 12.813999267578126 Q 27.459264068603517 12.461999267578125 27.668264068603516 12.142999267578125 Q 27.877264068603516 11.823999267578126 28.141264068603515 11.801999267578125 L 28.207264068603514 11.801999267578125 Q 28.471264068603517 11.801999267578125 28.570264068603514 11.922999267578126 Q 28.669264068603514 12.043999267578126 28.669264068603514 12.219999267578125 Q 28.669264068603514 12.549999267578125 28.383264068603516 12.934999267578124 Q 28.097264068603515 13.319999267578126 27.811264068603514 13.319999267578126 Z M 26.689264068603514 21.195999267578124 Q 25.941264068603516 21.195999267578124 25.677264068603517 20.623999267578125 Q 25.413264068603517 20.051999267578125 25.413264068603517 19.303999267578124 Q 25.413264068603517 18.555999267578123 25.578264068603517 17.730999267578124 Q 25.743264068603516 16.905999267578125 25.952264068603515 16.223999267578126 Q 26.161264068603515 15.541999267578126 26.271264068603514 15.255999267578126 Q 26.513264068603515 14.749999267578126 26.755264068603516 14.386999267578126 Q 26.997264068603517 14.023999267578127 27.283264068603515 14.023999267578127 Q 27.481264068603515 14.023999267578127 27.580264068603515 14.166999267578126 Q 27.679264068603516 14.309999267578124 27.679264068603516 14.529999267578125 Q 27.679264068603516 14.969999267578125 27.437264068603515 15.420999267578125 Q 27.195264068603514 15.871999267578126 26.997264068603517 16.267999267578126 Q 26.557264068603516 17.169999267578124 26.304264068603516 17.873999267578125 Q 26.051264068603516 18.577999267578125 26.051264068603516 19.633999267578126 Q 26.051264068603516 20.315999267578125 26.194264068603516 20.623999267578125 Q 26.337264068603517 20.931999267578124 26.601264068603516 20.931999267578124 Q 26.953264068603517 20.931999267578124 27.415264068603516 20.524999267578124 Q 27.877264068603516 20.117999267578124 28.361264068603514 19.435999267578126 Q 28.845264068603516 18.753999267578124 29.219264068603515 17.961999267578125 Q 29.461264068603516 17.455999267578125 29.593264068603517 17.455999267578125 Q 29.681264068603515 17.455999267578125 29.681264068603515 17.631999267578124 Q 29.681264068603515 17.873999267578125 29.494264068603513 18.324999267578125 Q 29.307264068603516 18.775999267578126 29.054264068603516 19.237999267578125 Q 28.801264068603516 19.699999267578125 28.581264068603517 19.963999267578124 Q 28.207264068603514 20.447999267578126 27.723264068603516 20.821999267578125 Q 27.239264068603514 21.195999267578124 26.689264068603514 21.195999267578124 Z M 29.871163360595702 20.491999267578127 Q 29.475163360595705 20.491999267578127 29.299163360595703 20.150999267578126 Q 29.123163360595704 19.809999267578124 29.123163360595704 19.347999267578125 Q 29.123163360595704 18.753999267578124 29.332163360595704 17.961999267578125 Q 29.541163360595704 17.169999267578124 29.893163360595704 16.322999267578126 Q 30.245163360595704 15.475999267578125 30.696163360595705 14.760999267578125 Q 31.1471633605957 14.045999267578125 31.653163360595702 13.594999267578125 Q 32.159163360595706 13.143999267578126 32.6431633605957 13.143999267578126 Q 33.083163360595705 13.143999267578126 33.4021633605957 13.528999267578126 Q 33.7211633605957 13.913999267578125 33.7211633605957 14.397999267578125 Q 33.7211633605957 14.683999267578125 33.6331633605957 14.870999267578124 Q 33.5451633605957 15.057999267578126 33.4351633605957 15.057999267578126 Q 33.3471633605957 15.057999267578126 33.281163360595706 14.925999267578124 Q 33.0611633605957 14.419999267578126 32.8081633605957 14.199999267578125 Q 32.5551633605957 13.979999267578126 32.291163360595704 13.979999267578126 Q 31.851163360595702 13.979999267578126 31.422163360595704 14.474999267578125 Q 30.9931633605957 14.969999267578125 30.729163360595702 15.607999267578126 Q 30.509163360595704 16.091999267578124 30.322163360595702 16.762999267578124 Q 30.135163360595705 17.433999267578123 30.014163360595703 18.082999267578124 Q 29.893163360595704 18.731999267578125 29.893163360595704 19.149999267578124 Q 29.893163360595704 19.897999267578125 30.245163360595704 19.897999267578125 Q 30.685163360595702 19.897999267578125 31.367163360595704 18.929999267578125 Q 31.873163360595704 18.225999267578125 32.2801633605957 17.301999267578125 Q 32.687163360595704 16.377999267578126 32.973163360595706 15.695999267578125 Q 33.083163360595705 15.475999267578125 33.2151633605957 15.409999267578126 Q 33.3471633605957 15.343999267578125 33.4571633605957 15.343999267578125 Q 33.7211633605957 15.343999267578125 33.7981633605957 15.563999267578126 Q 33.87516336059571 15.783999267578125 33.87516336059571 15.937999267578125 Q 33.87516336059571 16.509999267578124 33.7651633605957 16.960999267578124 Q 33.6551633605957 17.411999267578125 33.6551633605957 18.049999267578126 Q 33.6551633605957 18.511999267578126 33.732163360595706 18.896999267578124 Q 33.809163360595704 19.281999267578126 34.007163360595705 19.281999267578126 Q 34.2491633605957 19.281999267578126 34.623163360595704 18.665999267578126 Q 34.711163360595705 18.489999267578124 34.8871633605957 18.489999267578124 Q 35.0851633605957 18.489999267578124 35.0851633605957 18.687999267578125 Q 35.0851633605957 18.973999267578126 34.6891633605957 19.292999267578125 Q 34.2931633605957 19.611999267578124 33.897163360595705 19.611999267578124 Q 33.36916336059571 19.611999267578124 33.1491633605957 19.171999267578126 Q 32.775163360595705 18.445999267578124 32.775163360595705 17.862999267578125 Q 32.775163360595705 17.279999267578127 32.75316336059571 17.059999267578124 Q 32.6431633605957 17.323999267578124 32.3351633605957 17.884999267578124 Q 32.0271633605957 18.445999267578124 31.6091633605957 19.050999267578124 Q 31.191163360595702 19.655999267578125 30.729163360595702 20.073999267578124 Q 30.267163360595703 20.491999267578127 29.871163360595702 20.491999267578127 Z M 38.79923733520508 20.975999267578125 Q 38.49123733520508 20.975999267578125 38.34823733520508 20.733999267578124 Q 38.20523733520508 20.491999267578127 38.20523733520508 20.073999267578124 Q 38.20523733520508 19.523999267578127 38.40323733520508 18.742999267578124 Q 38.60123733520508 17.961999267578125 38.88723733520508 17.103999267578125 Q 39.17323733520508 16.245999267578124 39.48123733520508 15.453999267578126 Q 39.78923733520508 14.661999267578125 40.03123733520508 14.045999267578125 Q 40.27323733520508 13.429999267578125 40.361237335205075 13.165999267578126 Q 40.40523733520508 13.055999267578127 40.46023733520508 12.868999267578126 Q 40.51523733520508 12.681999267578124 40.51523733520508 12.527999267578126 Q 40.51523733520508 12.351999267578126 40.43823733520508 12.241999267578125 Q 40.361237335205075 12.131999267578125 40.11923733520508 12.131999267578125 Q 39.76723733520508 12.131999267578125 39.36023733520508 12.428999267578126 Q 38.953237335205074 12.725999267578125 38.55723733520508 13.132999267578125 Q 38.16123733520508 13.539999267578125 37.864237335205075 13.935999267578126 Q 37.56723733520508 14.331999267578126 37.45723733520508 14.529999267578125 Q 36.77523733520508 15.651999267578125 36.44523733520508 16.850999267578125 Q 36.11523733520508 18.049999267578126 35.983237335205075 19.369999267578127 Q 35.96123733520508 19.589999267578126 35.763237335205076 19.853999267578125 Q 35.565237335205076 20.117999267578124 35.367237335205076 20.117999267578124 Q 35.19123733520508 20.117999267578124 35.10323733520508 19.897999267578125 Q 35.03723733520508 19.743999267578126 35.01523733520508 19.545999267578125 Q 34.99323733520508 19.347999267578125 34.99323733520508 19.127999267578126 Q 34.99323733520508 18.929999267578125 35.004237335205076 18.742999267578124 Q 35.01523733520508 18.555999267578123 35.01523733520508 18.401999267578127 Q 35.03723733520508 17.719999267578125 35.08123733520508 17.037999267578126 Q 35.12523733520508 16.355999267578127 35.12523733520508 15.673999267578125 Q 35.12523733520508 15.431999267578124 35.114237335205075 15.178999267578124 Q 35.10323733520508 14.925999267578124 35.08123733520508 14.683999267578125 Q 35.059237335205076 14.375999267578125 34.99323733520508 14.034999267578126 Q 34.92723733520508 13.693999267578125 34.663237335205075 13.473999267578126 Q 34.641237335205076 13.451999267578126 34.641237335205076 13.440999267578125 Q 34.641237335205076 13.429999267578125 34.641237335205076 13.429999267578125 Q 34.641237335205076 13.341999267578124 34.79523733520508 13.341999267578124 Q 34.949237335205076 13.341999267578124 35.01523733520508 13.407999267578125 Q 35.32323733520508 13.561999267578125 35.510237335205076 13.979999267578126 Q 35.69723733520508 14.397999267578125 35.79623733520508 14.925999267578124 Q 35.89523733520508 15.453999267578126 35.93923733520508 15.948999267578126 Q 35.983237335205075 16.443999267578125 36.00523733520508 16.773999267578127 Q 36.15923733520508 16.399999267578124 36.291237335205075 16.080999267578125 Q 36.42323733520508 15.761999267578126 36.577237335205076 15.453999267578126 Q 36.797237335205075 15.013999267578125 37.160237335205075 14.386999267578126 Q 37.52323733520508 13.759999267578126 38.007237335205076 13.165999267578126 Q 38.49123733520508 12.571999267578125 39.06323733520508 12.175999267578126 Q 39.635237335205076 11.779999267578125 40.27323733520508 11.779999267578125 Q 40.95523733520508 11.779999267578125 41.230237335205075 12.076999267578126 Q 41.50523733520508 12.373999267578126 41.50523733520508 12.813999267578126 Q 41.50523733520508 13.297999267578126 41.27423733520508 13.880999267578126 Q 41.04323733520508 14.463999267578124 40.71323733520508 15.035999267578125 Q 40.38323733520508 15.607999267578126 40.08623733520508 16.058999267578123 Q 39.78923733520508 16.509999267578124 39.65723733520508 16.751999267578125 Q 39.59123733520508 16.861999267578124 39.41523733520508 17.246999267578126 Q 39.239237335205075 17.631999267578124 39.041237335205075 18.126999267578125 Q 38.843237335205075 18.621999267578126 38.700237335205074 19.127999267578126 Q 38.55723733520508 19.633999267578126 38.55723733520508 19.985999267578126 Q 38.55723733520508 20.337999267578127 38.733237335205075 20.447999267578126 Q 38.953237335205074 20.579999267578124 39.206237335205074 20.403999267578126 Q 39.459237335205074 20.227999267578124 39.635237335205076 20.051999267578125 Q 39.81123733520508 19.875999267578123 39.76723733520508 20.007999267578125 Q 39.745237335205076 20.293999267578126 39.44823733520508 20.634999267578124 Q 39.15123733520508 20.975999267578125 38.79923733520508 20.975999267578125 Z M 44.17763900756836 21.437999267578125 Q 43.45163900756836 21.437999267578125 43.00063900756836 20.997999267578123 Q 42.54963900756836 20.557999267578126 42.32963900756836 19.864999267578124 Q 42.10963900756836 19.171999267578126 42.10963900756836 18.401999267578127 Q 42.10963900756836 17.939999267578123 42.19763900756836 17.521999267578124 Q 42.285639007568356 17.103999267578125 42.37363900756836 16.839999267578126 Q 42.35163900756836 16.685999267578126 42.340639007568356 16.520999267578127 Q 42.32963900756836 16.355999267578127 42.32963900756836 16.179999267578125 Q 42.32963900756836 15.541999267578126 42.46163900756836 14.793999267578126 Q 42.593639007568356 14.045999267578125 42.89063900756836 13.363999267578127 Q 43.18763900756836 12.681999267578124 43.63863900756836 12.252999267578126 Q 44.08963900756836 11.823999267578126 44.74963900756836 11.823999267578126 Q 45.32163900756836 11.823999267578126 45.87163900756836 12.296999267578126 Q 46.42163900756836 12.769999267578125 46.83963900756836 13.671999267578126 Q 47.081639007568356 14.177999267578127 47.18063900756836 14.760999267578125 Q 47.279639007568356 15.343999267578125 47.279639007568356 15.937999267578125 Q 47.279639007568356 16.751999267578125 47.11463900756836 17.554999267578125 Q 46.94963900756836 18.357999267578126 46.64163900756836 19.061999267578123 Q 46.42163900756836 19.567999267578124 46.05863900756836 20.128999267578124 Q 45.69563900756836 20.689999267578123 45.23363900756836 21.063999267578126 Q 44.77163900756836 21.437999267578125 44.17763900756836 21.437999267578125 Z M 44.28763900756836 20.953999267578126 Q 45.035639007568356 20.953999267578126 45.67363900756836 19.919999267578124 Q 46.13563900756836 19.193999267578125 46.33363900756836 18.258999267578126 Q 46.53163900756836 17.323999267578124 46.53163900756836 16.377999267578126 Q 46.53163900756836 15.673999267578125 46.44363900756836 15.013999267578125 Q 46.35563900756836 14.353999267578125 46.17963900756836 13.737999267578125 Q 46.02563900756836 13.187999267578125 45.66263900756836 12.758999267578126 Q 45.29963900756836 12.329999267578126 44.63963900756836 12.395999267578125 Q 44.11163900756836 12.439999267578125 43.715639007568356 12.923999267578125 Q 43.31963900756836 13.407999267578125 43.11063900756836 14.012999267578126 Q 42.901639007568356 14.617999267578124 42.901639007568356 15.057999267578126 Q 42.901639007568356 15.299999267578126 42.96763900756836 15.431999267578124 Q 43.03363900756836 15.255999267578126 43.29763900756836 14.848999267578126 Q 43.56163900756836 14.441999267578126 43.89163900756836 14.100999267578125 Q 44.221639007568356 13.759999267578126 44.50763900756836 13.759999267578126 Q 44.74963900756836 13.759999267578126 44.74963900756836 13.957999267578124 Q 44.46363900756836 13.979999267578126 44.18863900756836 14.298999267578125 Q 43.91363900756836 14.617999267578124 43.68263900756836 15.057999267578126 Q 43.45163900756836 15.497999267578125 43.30863900756836 15.926999267578125 Q 43.16563900756836 16.355999267578127 43.099639007568356 16.597999267578125 Q 43.07763900756836 16.685999267578126 43.03363900756836 16.817999267578124 Q 42.98963900756836 16.949999267578125 42.98963900756836 17.081999267578126 Q 42.98963900756836 17.235999267578126 43.16563900756836 17.576999267578124 Q 43.34163900756836 17.917999267578125 43.73763900756836 18.203999267578126 Q 44.13363900756836 18.489999267578124 44.81563900756836 18.489999267578124 Q 45.01363900756836 18.489999267578124 45.23363900756836 18.445999267578124 Q 45.453639007568356 18.401999267578127 45.65163900756836 18.357999267578126 L 45.80563900756836 18.313999267578126 Q 45.849639007568356 18.313999267578126 45.849639007568356 18.357999267578126 Q 45.849639007568356 18.423999267578125 45.706639007568356 18.522999267578125 Q 45.56363900756836 18.621999267578126 45.453639007568356 18.665999267578126 Q 45.14563900756836 18.819999267578126 44.77163900756836 18.819999267578126 Q 44.221639007568356 18.819999267578126 43.72663900756836 18.478999267578125 Q 43.23163900756836 18.137999267578124 42.85763900756836 17.697999267578126 Q 42.83563900756836 17.873999267578125 42.83563900756836 18.038999267578124 Q 42.83563900756836 18.203999267578126 42.83563900756836 18.357999267578126 Q 42.83563900756836 19.633999267578126 43.27563900756836 20.293999267578126 Q 43.715639007568356 20.953999267578126 44.28763900756836 20.953999267578126 Z M 59.951722290039065 28.917999267578125 Q 58.939722290039064 28.917999267578125 58.00472229003906 28.081999267578126 Q 57.06972229003906 27.245999267578124 56.442722290039065 25.661999267578125 Q 55.81572229003906 24.077999267578125 55.70572229003906 21.833999267578125 Q 55.02372229003906 21.899999267578124 54.451722290039065 21.899999267578124 Q 53.17572229003906 21.899999267578124 52.59272229003906 21.569999267578126 Q 52.009722290039065 21.239999267578124 52.009722290039065 20.711999267578125 Q 52.009722290039065 20.183999267578123 52.515722290039065 19.545999267578125 Q 53.021722290039065 18.907999267578127 53.92372229003906 18.258999267578126 Q 54.82572229003906 17.609999267578125 56.03572229003906 17.081999267578126 Q 56.45372229003906 14.837999267578125 57.38872229003906 12.230999267578126 Q 58.323722290039065 9.623999267578126 59.90772229003906 6.697999267578126 Q 60.061722290039064 6.4119992675781265 60.369722290039064 6.4119992675781265 Q 60.567722290039065 6.4119992675781265 60.72172229003906 6.543999267578126 Q 60.875722290039064 6.675999267578126 60.875722290039064 6.8959992675781265 Q 60.875722290039064 7.005999267578126 60.80972229003906 7.181999267578126 Q 59.40172229003906 10.019999267578125 58.46672229003906 12.384999267578126 Q 57.53172229003906 14.749999267578126 57.003722290039065 16.707999267578124 Q 57.99372229003906 16.333999267578125 59.11572229003906 16.091999267578124 Q 60.23772229003906 15.849999267578125 61.40372229003906 15.805999267578125 Q 61.71172229003906 15.805999267578125 61.71172229003906 15.893999267578124 Q 61.71172229003906 15.981999267578125 61.50272229003906 16.058999267578123 Q 61.293722290039064 16.135999267578125 60.80972229003906 16.157999267578127 Q 59.73172229003906 16.223999267578126 58.75272229003906 16.454999267578124 Q 57.77372229003906 16.685999267578126 56.915722290039064 17.015999267578124 Q 56.585722290039065 18.291999267578124 56.40972229003906 19.380999267578126 Q 56.23372229003906 20.469999267578125 56.189722290039064 21.393999267578124 Q 58.45572229003906 20.909999267578126 60.314722290039064 19.974999267578124 Q 62.173722290039066 19.039999267578125 63.60372229003906 17.807999267578126 Q 65.03372229003907 16.575999267578126 66.00172229003905 15.255999267578126 Q 66.61772229003907 14.419999267578126 66.89272229003906 13.770999267578127 Q 67.16772229003907 13.121999267578126 67.16772229003907 12.637999267578126 Q 67.16772229003907 11.933999267578125 66.72772229003905 11.526999267578125 Q 66.28772229003906 11.119999267578125 65.56172229003906 10.932999267578126 Q 64.83572229003906 10.745999267578126 63.97772229003906 10.745999267578126 Q 63.07572229003906 10.745999267578126 62.15172229003906 10.910999267578125 Q 61.22772229003906 11.075999267578126 60.479722290039064 11.361999267578126 Q 60.30372229003906 11.405999267578126 60.23772229003906 11.405999267578126 Q 59.951722290039065 11.405999267578126 59.951722290039065 11.207999267578126 Q 59.951722290039065 11.009999267578126 60.19372229003906 10.899999267578126 Q 62.899722290039065 9.359999267578125 64.04372229003906 8.105999267578126 Q 65.18772229003906 6.851999267578126 65.18772229003906 5.9939992675781255 Q 65.18772229003906 5.245999267578126 64.49472229003906 4.838999267578126 Q 63.80172229003906 4.431999267578124 62.67972229003906 4.431999267578124 Q 61.799722290039064 4.431999267578124 60.69972229003906 4.717999267578126 Q 59.59972229003906 5.003999267578125 58.433722290039064 5.641999267578125 Q 57.46572229003906 6.169999267578126 56.68472229003906 6.8849992675781255 Q 55.90372229003906 7.599999267578125 55.36472229003906 8.358999267578126 Q 54.82572229003906 9.117999267578126 54.561722290039064 9.788999267578125 Q 54.29772229003906 10.459999267578125 54.363722290039064 10.921999267578126 Q 54.363722290039064 10.965999267578125 54.37472229003906 11.020999267578125 Q 54.38572229003906 11.075999267578126 54.38572229003906 11.119999267578125 Q 54.38572229003906 11.669999267578126 54.055722290039064 11.669999267578126 Q 53.90172229003906 11.669999267578126 53.73672229003906 11.449999267578125 Q 53.57172229003906 11.229999267578126 53.57172229003906 10.789999267578125 Q 53.57172229003906 10.129999267578125 53.97872229003906 9.381999267578125 Q 54.38572229003906 8.633999267578126 55.07872229003906 7.874999267578126 Q 55.771722290039065 7.115999267578125 56.62972229003906 6.444999267578126 Q 57.48772229003906 5.773999267578127 58.411722290039066 5.289999267578127 Q 59.59972229003906 4.651999267578127 60.75472229003906 4.343999267578127 Q 61.90972229003906 4.035999267578127 62.87772229003906 4.035999267578127 Q 64.21972229003906 4.035999267578127 65.05572229003906 4.563999267578126 Q 65.89172229003906 5.091999267578126 65.89172229003906 6.037999267578126 Q 65.89172229003906 6.917999267578125 65.03372229003907 8.083999267578125 Q 64.17572229003906 9.249999267578126 62.15172229003906 10.657999267578125 Q 62.83372229003906 10.547999267578126 63.427722290039064 10.492999267578126 Q 64.02172229003907 10.437999267578126 64.52772229003907 10.437999267578126 Q 66.41972229003906 10.437999267578126 67.26672229003906 11.064999267578125 Q 68.11372229003906 11.691999267578126 68.11372229003906 12.681999267578124 Q 68.11372229003906 13.407999267578125 67.70672229003907 14.254999267578125 Q 67.29972229003906 15.101999267578126 66.57372229003906 16.003999267578124 Q 65.51772229003906 17.301999267578125 63.92272229003906 18.511999267578126 Q 62.32772229003906 19.721999267578123 60.35872229003906 20.601999267578126 Q 58.38972229003906 21.481999267578125 56.167722290039066 21.789999267578125 Q 56.12372229003906 23.747999267578123 56.530722290039066 25.023999267578127 Q 56.93772229003906 26.299999267578123 57.57572229003906 27.014999267578126 Q 58.21372229003906 27.729999267578123 58.85172229003906 28.026999267578127 Q 59.48972229003906 28.323999267578124 59.90772229003906 28.323999267578124 Q 60.21572229003906 28.323999267578124 60.32572229003906 28.213999267578124 Q 60.41372229003906 28.103999267578125 60.58972229003906 28.103999267578125 Q 60.765722290039065 28.103999267578125 60.91972229003906 28.235999267578123 Q 61.07372229003906 28.367999267578124 61.07372229003906 28.521999267578124 Q 61.07372229003906 28.653999267578126 60.91972229003906 28.719999267578125 Q 60.43572229003906 28.917999267578125 59.951722290039065 28.917999267578125 Z M 54.539722290039066 21.613999267578127 Q 54.78172229003906 21.613999267578127 55.067722290039065 21.580999267578125 Q 55.35372229003906 21.547999267578124 55.683722290039064 21.503999267578124 Q 55.661722290039066 20.579999267578124 55.72772229003906 19.567999267578124 Q 55.793722290039064 18.555999267578123 55.96972229003906 17.455999267578125 Q 54.561722290039064 18.181999267578124 53.747722290039064 19.072999267578126 Q 52.933722290039064 19.963999267578124 52.933722290039064 20.645999267578127 Q 52.933722290039064 21.063999267578126 53.329722290039065 21.338999267578124 Q 53.725722290039066 21.613999267578127 54.539722290039066 21.613999267578127 Z M 70.66256335449219 13.319999267578126 Q 70.46456335449218 13.319999267578126 70.38756335449219 13.110999267578126 Q 70.31056335449219 12.901999267578127 70.31056335449219 12.813999267578126 Q 70.31056335449219 12.461999267578125 70.51956335449219 12.142999267578125 Q 70.72856335449218 11.823999267578126 70.99256335449219 11.801999267578125 L 71.0585633544922 11.801999267578125 Q 71.32256335449219 11.801999267578125 71.42156335449219 11.922999267578126 Q 71.52056335449218 12.043999267578126 71.52056335449218 12.219999267578125 Q 71.52056335449218 12.549999267578125 71.23456335449218 12.934999267578124 Q 70.9485633544922 13.319999267578126 70.66256335449219 13.319999267578126 Z M 69.54056335449219 21.195999267578124 Q 68.79256335449219 21.195999267578124 68.52856335449219 20.623999267578125 Q 68.26456335449218 20.051999267578125 68.26456335449218 19.303999267578124 Q 68.26456335449218 18.555999267578123 68.42956335449219 17.730999267578124 Q 68.59456335449218 16.905999267578125 68.80356335449218 16.223999267578126 Q 69.01256335449219 15.541999267578126 69.12256335449219 15.255999267578126 Q 69.36456335449219 14.749999267578126 69.60656335449218 14.386999267578126 Q 69.84856335449219 14.023999267578127 70.13456335449219 14.023999267578127 Q 70.3325633544922 14.023999267578127 70.43156335449218 14.166999267578126 Q 70.53056335449219 14.309999267578124 70.53056335449219 14.529999267578125 Q 70.53056335449219 14.969999267578125 70.28856335449218 15.420999267578125 Q 70.04656335449219 15.871999267578126 69.84856335449219 16.267999267578126 Q 69.40856335449219 17.169999267578124 69.15556335449219 17.873999267578125 Q 68.90256335449219 18.577999267578125 68.90256335449219 19.633999267578126 Q 68.90256335449219 20.315999267578125 69.04556335449219 20.623999267578125 Q 69.18856335449219 20.931999267578124 69.45256335449218 20.931999267578124 Q 69.80456335449219 20.931999267578124 70.26656335449219 20.524999267578124 Q 70.72856335449218 20.117999267578124 71.21256335449219 19.435999267578126 Q 71.69656335449218 18.753999267578124 72.0705633544922 17.961999267578125 Q 72.31256335449218 17.455999267578125 72.44456335449219 17.455999267578125 Q 72.53256335449218 17.455999267578125 72.53256335449218 17.631999267578124 Q 72.53256335449218 17.873999267578125 72.34556335449219 18.324999267578125 Q 72.15856335449219 18.775999267578126 71.90556335449219 19.237999267578125 Q 71.65256335449219 19.699999267578125 71.43256335449219 19.963999267578124 Q 71.0585633544922 20.447999267578126 70.57456335449218 20.821999267578125 Q 70.09056335449219 21.195999267578124 69.54056335449219 21.195999267578124 Z M 73.88846264648437 21.613999267578127 Q 73.60246264648437 21.613999267578127 73.48146264648437 21.426999267578125 Q 73.36046264648438 21.239999267578124 73.36046264648438 21.063999267578126 Q 73.36046264648438 20.711999267578125 73.66846264648437 20.337999267578127 Q 73.77846264648437 20.205999267578125 73.97646264648438 19.974999267578124 Q 74.17446264648437 19.743999267578126 74.26246264648438 19.611999267578124 Q 73.97646264648438 19.215999267578127 73.49246264648437 18.885999267578125 Q 73.00846264648438 18.555999267578123 72.54646264648437 18.049999267578126 Q 72.12846264648438 17.587999267578127 71.84246264648438 16.916999267578124 Q 71.55646264648438 16.245999267578124 71.55646264648438 15.629999267578125 Q 71.55646264648438 14.903999267578126 71.88646264648438 14.243999267578126 Q 72.21646264648437 13.583999267578125 72.70046264648437 13.099999267578125 Q 73.22846264648437 12.571999267578125 73.86646264648438 12.252999267578126 Q 74.50446264648437 11.933999267578125 75.18646264648437 11.933999267578125 Q 75.64846264648438 11.933999267578125 76.08846264648437 12.153999267578126 Q 76.52846264648437 12.373999267578126 76.52846264648437 12.879999267578125 Q 76.52846264648437 13.473999267578126 76.26446264648438 13.473999267578126 Q 76.15446264648438 13.473999267578126 76.11046264648438 13.253999267578125 Q 76.08846264648437 13.143999267578126 76.08846264648437 13.022999267578125 Q 76.08846264648437 12.901999267578127 76.08846264648437 12.857999267578126 Q 76.08846264648437 12.637999267578126 75.89046264648438 12.472999267578125 Q 75.69246264648437 12.307999267578126 75.45046264648437 12.307999267578126 Q 74.94446264648437 12.307999267578126 74.32846264648437 12.703999267578126 Q 73.71246264648437 13.099999267578125 73.29446264648438 13.627999267578126 Q 72.87646264648437 14.177999267578127 72.61246264648437 14.870999267578124 Q 72.34846264648438 15.563999267578126 72.34846264648438 16.201999267578124 Q 72.34846264648438 16.993999267578126 72.70046264648437 17.565999267578125 Q 73.05246264648437 18.137999267578124 73.54746264648438 18.577999267578125 Q 74.04246264648438 19.017999267578126 74.43846264648437 19.435999267578126 Q 74.63646264648438 19.193999267578125 74.86746264648437 18.973999267578126 Q 75.09846264648438 18.753999267578124 75.29646264648437 18.621999267578126 Q 75.47246264648437 18.511999267578126 75.53846264648438 18.511999267578126 Q 75.60446264648438 18.511999267578126 75.60446264648438 18.577999267578125 Q 75.60446264648438 18.687999267578125 75.40646264648437 18.841999267578124 Q 75.36246264648437 18.885999267578125 75.15346264648437 19.094999267578125 Q 74.94446264648437 19.303999267578124 74.65846264648438 19.611999267578124 Q 74.83446264648437 19.809999267578124 74.94446264648437 20.029999267578123 Q 75.05446264648438 20.249999267578126 75.05446264648438 20.513999267578125 Q 75.05446264648438 20.865999267578125 74.65846264648438 21.239999267578124 Q 74.26246264648438 21.613999267578127 73.88846264648437 21.613999267578127 Z M 74.13046264648438 21.019999267578125 Q 74.28446264648437 21.019999267578125 74.42746264648437 20.744999267578127 Q 74.57046264648437 20.469999267578125 74.57046264648437 20.205999267578125 Q 74.57046264648437 20.073999267578124 74.52646264648438 19.963999267578124 Q 74.48246264648438 19.853999267578125 74.46046264648437 19.831999267578126 Q 74.28446264648437 20.051999267578125 74.14146264648437 20.304999267578125 Q 73.99846264648437 20.557999267578126 73.99846264648437 20.755999267578126 Q 73.99846264648437 21.019999267578125 74.13046264648438 21.019999267578125 Z M 76.94458276367187 27.839999267578126 Q 76.61458276367188 27.839999267578126 76.41658276367187 27.410999267578124 Q 76.21858276367188 26.981999267578125 76.11958276367187 26.387999267578124 Q 76.02058276367187 25.793999267578123 76.02058276367187 25.287999267578126 Q 76.02058276367187 25.045999267578125 76.04258276367187 24.583999267578125 Q 76.06458276367188 24.121999267578126 76.10858276367188 23.593999267578123 Q 76.15258276367187 23.065999267578125 76.19658276367187 22.603999267578125 Q 76.24058276367188 22.141999267578125 76.26258276367187 21.899999267578124 Q 76.46058276367188 20.403999267578126 76.85658276367188 19.006999267578124 Q 77.25258276367188 17.609999267578125 77.71458276367187 16.267999267578126 Q 77.73658276367188 16.223999267578126 77.76958276367188 16.135999267578125 Q 77.80258276367188 16.047999267578124 77.82458276367187 16.047999267578124 L 77.82458276367187 15.981999267578125 Q 77.60458276367187 16.069999267578126 77.26358276367188 16.399999267578124 Q 76.92258276367187 16.729999267578126 76.76858276367187 16.905999267578125 Q 76.61458276367188 17.059999267578124 76.48258276367187 17.224999267578127 Q 76.35058276367188 17.389999267578126 76.17458276367188 17.389999267578126 Q 75.99858276367188 17.389999267578126 75.99858276367188 17.191999267578126 Q 75.99858276367188 16.949999267578125 76.25158276367188 16.696999267578125 Q 76.50458276367188 16.443999267578125 76.81258276367187 16.223999267578126 Q 77.12058276367188 15.981999267578125 77.48358276367188 15.783999267578125 Q 77.84658276367188 15.585999267578124 78.00058276367187 15.497999267578125 Q 78.06658276367187 15.453999267578126 78.09958276367188 15.387999267578126 Q 78.13258276367188 15.321999267578125 78.15458276367187 15.255999267578126 Q 78.30858276367188 15.013999267578125 78.47358276367187 14.793999267578126 Q 78.63858276367188 14.573999267578126 78.92458276367188 14.485999267578126 Q 79.12258276367187 14.507999267578125 79.36458276367188 14.573999267578126 Q 79.60658276367188 14.639999267578126 79.65058276367188 14.881999267578125 Q 79.65058276367188 14.969999267578125 79.69458276367187 14.969999267578125 L 79.69458276367187 14.991999267578127 Q 79.80458276367187 14.991999267578127 79.96958276367188 14.958999267578125 Q 80.13458276367187 14.925999267578124 80.35458276367187 14.925999267578124 Q 81.21258276367188 14.925999267578124 81.74058276367188 15.365999267578125 Q 82.26858276367187 15.805999267578125 82.26858276367187 16.531999267578126 Q 82.26858276367187 17.213999267578124 81.87258276367187 17.994999267578123 Q 81.47658276367187 18.775999267578126 81.01458276367188 19.259999267578124 Q 80.28858276367187 19.985999267578126 79.48558276367187 20.524999267578124 Q 78.68258276367187 21.063999267578126 78.11058276367187 21.063999267578126 Q 77.75858276367188 21.063999267578126 77.63758276367187 20.876999267578125 Q 77.51658276367188 20.689999267578123 77.51658276367188 20.425999267578124 Q 77.51658276367188 20.051999267578125 77.84658276367188 19.677999267578127 Q 78.17658276367187 19.303999267578124 78.50658276367187 19.039999267578125 Q 78.88058276367188 18.731999267578125 79.28758276367188 18.467999267578126 Q 79.69458276367187 18.203999267578126 79.98058276367188 18.027999267578124 Q 80.13458276367187 17.917999267578125 80.27758276367187 17.829999267578124 Q 80.42058276367187 17.741999267578127 80.53058276367187 17.741999267578127 Q 80.59658276367188 17.741999267578127 80.59658276367188 17.807999267578126 Q 80.59658276367188 17.851999267578126 80.34358276367188 18.027999267578124 Q 80.09058276367188 18.203999267578126 79.91458276367187 18.335999267578124 Q 79.78258276367187 18.445999267578124 79.45258276367187 18.720999267578126 Q 79.12258276367187 18.995999267578124 78.75958276367187 19.336999267578125 Q 78.39658276367187 19.677999267578127 78.13258276367188 20.029999267578123 Q 77.86858276367188 20.381999267578124 77.86858276367188 20.645999267578127 Q 78.22058276367187 20.645999267578127 78.64958276367187 20.348999267578126 Q 79.07858276367188 20.051999267578125 79.50758276367188 19.655999267578125 Q 79.93658276367188 19.259999267578124 80.24458276367187 18.995999267578124 Q 80.53058276367187 18.731999267578125 80.92658276367187 18.269999267578125 Q 81.32258276367187 17.807999267578126 81.63058276367187 17.279999267578127 Q 81.93858276367187 16.751999267578125 81.93858276367187 16.311999267578123 Q 81.93858276367187 15.739999267578124 81.50958276367187 15.464999267578126 Q 81.08058276367187 15.189999267578125 80.48658276367188 15.189999267578125 Q 80.28858276367187 15.189999267578125 79.98058276367188 15.233999267578126 Q 79.67258276367187 15.277999267578124 79.60658276367188 15.321999267578125 Q 79.12258276367187 16.069999267578126 78.68258276367187 16.839999267578126 Q 78.24258276367188 17.609999267578125 77.86858276367188 18.423999267578125 Q 77.25258276367188 19.743999267578126 76.88958276367188 21.107999267578126 Q 76.52658276367187 22.471999267578123 76.41658276367187 24.055999267578123 Q 76.39458276367188 24.429999267578125 76.36158276367188 24.847999267578125 Q 76.32858276367188 25.265999267578124 76.35058276367188 25.683999267578123 Q 76.37258276367187 25.903999267578126 76.43858276367187 26.387999267578124 Q 76.50458276367188 26.871999267578126 76.65858276367187 27.267999267578126 Q 76.81258276367187 27.663999267578124 77.07658276367188 27.663999267578124 Q 77.09858276367187 27.663999267578124 77.16458276367187 27.663999267578124 Q 77.23058276367188 27.663999267578124 77.23058276367188 27.685999267578126 L 77.23058276367188 27.751999267578125 Q 77.07658276367188 27.839999267578126 76.94458276367187 27.839999267578126 Z M 84.62437438964844 21.437999267578125 Q 83.89837438964844 21.437999267578125 83.44737438964843 20.997999267578123 Q 82.99637438964844 20.557999267578126 82.77637438964844 19.864999267578124 Q 82.55637438964844 19.171999267578126 82.55637438964844 18.401999267578127 Q 82.55637438964844 17.939999267578123 82.64437438964843 17.521999267578124 Q 82.73237438964844 17.103999267578125 82.82037438964844 16.839999267578126 Q 82.79837438964844 16.685999267578126 82.78737438964843 16.520999267578127 Q 82.77637438964844 16.355999267578127 82.77637438964844 16.179999267578125 Q 82.77637438964844 15.541999267578126 82.90837438964844 14.793999267578126 Q 83.04037438964843 14.045999267578125 83.33737438964843 13.363999267578127 Q 83.63437438964844 12.681999267578124 84.08537438964844 12.252999267578126 Q 84.53637438964844 11.823999267578126 85.19637438964844 11.823999267578126 Q 85.76837438964844 11.823999267578126 86.31837438964844 12.296999267578126 Q 86.86837438964844 12.769999267578125 87.28637438964844 13.671999267578126 Q 87.52837438964843 14.177999267578127 87.62737438964844 14.760999267578125 Q 87.72637438964844 15.343999267578125 87.72637438964844 15.937999267578125 Q 87.72637438964844 16.751999267578125 87.56137438964844 17.554999267578125 Q 87.39637438964844 18.357999267578126 87.08837438964844 19.061999267578123 Q 86.86837438964844 19.567999267578124 86.50537438964844 20.128999267578124 Q 86.14237438964844 20.689999267578123 85.68037438964843 21.063999267578126 Q 85.21837438964843 21.437999267578125 84.62437438964844 21.437999267578125 Z M 84.73437438964844 20.953999267578126 Q 85.48237438964844 20.953999267578126 86.12037438964843 19.919999267578124 Q 86.58237438964844 19.193999267578125 86.78037438964844 18.258999267578126 Q 86.97837438964844 17.323999267578124 86.97837438964844 16.377999267578126 Q 86.97837438964844 15.673999267578125 86.89037438964844 15.013999267578125 Q 86.80237438964843 14.353999267578125 86.62637438964843 13.737999267578125 Q 86.47237438964844 13.187999267578125 86.10937438964844 12.758999267578126 Q 85.74637438964844 12.329999267578126 85.08637438964844 12.395999267578125 Q 84.55837438964843 12.439999267578125 84.16237438964843 12.923999267578125 Q 83.76637438964843 13.407999267578125 83.55737438964843 14.012999267578126 Q 83.34837438964844 14.617999267578124 83.34837438964844 15.057999267578126 Q 83.34837438964844 15.299999267578126 83.41437438964844 15.431999267578124 Q 83.48037438964843 15.255999267578126 83.74437438964844 14.848999267578126 Q 84.00837438964844 14.441999267578126 84.33837438964844 14.100999267578125 Q 84.66837438964843 13.759999267578126 84.95437438964844 13.759999267578126 Q 85.19637438964844 13.759999267578126 85.19637438964844 13.957999267578124 Q 84.91037438964844 13.979999267578126 84.63537438964843 14.298999267578125 Q 84.36037438964844 14.617999267578124 84.12937438964843 15.057999267578126 Q 83.89837438964844 15.497999267578125 83.75537438964844 15.926999267578125 Q 83.61237438964844 16.355999267578127 83.54637438964843 16.597999267578125 Q 83.52437438964844 16.685999267578126 83.48037438964843 16.817999267578124 Q 83.43637438964844 16.949999267578125 83.43637438964844 17.081999267578126 Q 83.43637438964844 17.235999267578126 83.61237438964844 17.576999267578124 Q 83.78837438964844 17.917999267578125 84.18437438964844 18.203999267578126 Q 84.58037438964844 18.489999267578124 85.26237438964844 18.489999267578124 Q 85.46037438964844 18.489999267578124 85.68037438964843 18.445999267578124 Q 85.90037438964843 18.401999267578127 86.09837438964844 18.357999267578126 L 86.25237438964844 18.313999267578126 Q 86.29637438964843 18.313999267578126 86.29637438964843 18.357999267578126 Q 86.29637438964843 18.423999267578125 86.15337438964843 18.522999267578125 Q 86.01037438964843 18.621999267578126 85.90037438964843 18.665999267578126 Q 85.59237438964844 18.819999267578126 85.21837438964843 18.819999267578126 Q 84.66837438964843 18.819999267578126 84.17337438964844 18.478999267578125 Q 83.67837438964844 18.137999267578124 83.30437438964844 17.697999267578126 Q 83.28237438964844 17.873999267578125 83.28237438964844 18.038999267578124 Q 83.28237438964844 18.203999267578126 83.28237438964844 18.357999267578126 Q 83.28237438964844 19.633999267578126 83.72237438964844 20.293999267578126 Q 84.16237438964843 20.953999267578126 84.73437438964844 20.953999267578126 Z" transform="matrix(1.235916018486023, 0, 0, 1, -0.16516399383544922, 0)" style="fill: rgb(228, 228, 228); white-space: pre;"/>
</svg>